<mxfile host="app.diagrams.net" modified="2024-04-08T07:16:33.335Z" agent="Mozilla/5.0 (Windows NT 10.0; Win64; x64) AppleWebKit/537.36 (KHTML, like Gecko) Chrome/123.0.0.0 Safari/537.36" version="24.2.2" etag="AoXDjv0hmW_2tf_K5OJh" type="github">
  <diagram name="第 1 页" id="AX6ixZm3uNOvfPBJ6uGB">
    <mxGraphModel>
      <root>
        <mxCell id="0" />
        <mxCell id="1" parent="0" />
      </root>
    </mxGraphModel>
  </diagram>
</mxfile>
